<svg viewBox="0 0 24 24" width="0" height="0" xmlns="http://www.w3.org/2000/svg">
    <defs>
        <style>
            .icon {
                display: none;
            }

            .icon:target {
                display:inline-block;
            }
        </style>
    </defs>

    <!-- Icono de corazón -->
    <g class="icon" id="icon-heart">
        <path d="M12 21.35l-1.45-1.32C5.4 15.36 2 12.28 2 8.5 2 5.42 4.42 3 7.5 3c1.74 0 3.41.81 4.5 2.09C13.09 3.81 14.76 3 16.5 3 19.58 3 22 5.42 22 8.5c0 3.78-3.4 6.86-8.55 11.54L12 21.35z"/>
    </g>

    <!-- Icono de estrella -->
    <g class="icon" id="icon-star">
        <path d="M12 2l2.4 7.2h7.6l-6.4 4.8 2.4 7.2-6.4-4.8-6.4 4.8 2.4-7.2-6.4-4.8h7.6z"/>
    </g>
</svg>